<?xml version="1.0" encoding="UTF-8"?>
<svg id="Objects" xmlns="http://www.w3.org/2000/svg" version="1.1" viewBox="0 0 2200 1466">
  <!-- Generator: Adobe Illustrator 29.4.0, SVG Export Plug-In . SVG Version: 2.1.0 Build 152)  -->
  <path fill="#0028ba" d="M1897.07,735.42c.16-1.74-.46-2.69-1.63-3.03-9.03-15.41-52.02-57.9-121.17-138.58l-37.77-41.93c-43.31-47.15-184.28-195.32-247.91-258.83-13.9-13.87-27.76-27.83-41.55-41.87-6.88-7.04-13.76-14.08-20.65-21.12l-10.29-10.61-7.57-7.84-2.43-2.51c-.81-.83-1.6-1.71-2.46-2.43l-2.52-2.26c-.21-.19-.42-.38-.63-.56l-.64-.45-1.29-.88-1.53-1c-.51-.34-1.03-.66-1.53-.9-1.01-.54-2.06-.95-3.1-1.44-1.02-.53-2.16-.79-3.27-1.14-1.1-.39-2.27-.57-3.44-.8-4.69-.88-9.76-.65-14.65.69-1.22.34-2.43.77-3.63,1.2-1.15.55-2.35,1.05-3.47,1.7l-1.67.99-.83.5-.78.58c-1.05.77-2.13,1.52-3.05,2.44l-1.45,1.33-1.29,1.48c-.91.96-1.64,2.04-2.39,3.11-.82,1.04-1.35,2.22-2.02,3.35-.35.56-.59,1.16-.83,1.77l-.74,1.82c-.26.6-.46,1.23-.68,1.86-.2.65-.35,1.37-.52,2.06l-.47,2.11-.22,1.07c-.06.37-.07.78-.1,1.17-.1,1.58-.27,3.14-.32,4.76,0,1.64,0,3.3,0,4.95-.01,4.72-.02,9.51-.03,14.38-.02,7.21-.04,14.62-.07,22.23-.09,30.44-.18,64-.29,99.6-.05,17.8-.1,36.12-.15,54.82-.03,9.35-.05,18.8-.08,28.32-.01,4.76-.03,9.54-.04,14.34v2.46s-.02.25-.02.25c0,.17-.03.33-.11.48-.15.3-.45.51-.78.55-.16.02-.33,0-.49,0-2.16,0-4.32-.01-6.48-.02-9.77-.03-19.6-.05-29.45-.08-19.7-.05-39.52-.1-59.33-.16-158.45-.41-316.03-.82-405.23-1.05-45.61-.12-91.21-.02-136.78.32-51.9.35-131.59.88-223.83,1.5-46.87.27-96.92.57-148.22.87-.73.02-1.46.07-2.19.1-.73.04-1.46.05-2.16.17-.71.08-1.41.2-2.1.35-.69.15-1.4.23-2.08.44-2.76.65-5.37,1.75-7.84,3.09-4.95,2.69-9.11,6.74-12.06,11.54-2.93,4.84-4.58,10.34-4.76,16.18-.1,1.46-.04,2.95-.05,4.42v3.42s.04,4.78.04,4.78c.07,12.75.14,25.54.21,38.35.13,25.62.27,51.31.4,76.83.43,102.08.84,201.44,1.18,282.84.03,10.18.05,20.07.08,29.65.01,5.53.02,10.96.03,16.3.05,1.01.09,2.02.14,3.03.09.99.21,1.97.4,2.92l.26,1.44c.11.47.25.94.37,1.41.22.95.55,1.85.88,2.76,1.34,3.61,3.38,6.89,5.91,9.68,2.52,2.79,5.55,5.07,8.83,6.76,3.29,1.7,6.88,2.66,10.51,3.11.9.13,1.85.14,2.78.18.93.05,1.86.07,2.8.06,1.57,0,3.14,0,4.7,0,2.1,0,4.18,0,6.24,0,8.22,0,16.08,0,23.53-.01,29.81,0,53.23.07,68.34.21,22.02.21,44.04.2,66.03-.11,92.58-1.31,302.34-4.17,509.31-4.81,76.37-.24,142.48.44,210.27,1.11,33.89.29,68.21.57,104.43.88,4.53.02,9.09.05,13.68.07,1.09.01,2.18.02,3.27.03.84.02,1.68.23,2.43.62,1.5.78,2.63,2.3,2.86,4.01.12.85.04,1.72.05,2.58,0,2.19,0,4.4-.01,6.61.01,19.26.03,39.17.05,59.95.14,39.78.27,79.24.4,116.34.03,9.27.07,18.4.1,27.35.02,4.47.03,8.9.05,13.28,0,2.5.02,5,.03,7.47,0,1.74,0,3.48.01,5.21.02,1.72-.04,3.48.1,5.13.36,6.82,1.81,12.16,5.1,17,1.69,2.33,3.63,4.56,6.03,6.2,2.34,1.68,4.89,3.14,7.64,3.96,1.34.51,2.77.7,4.14,1.03l2.11.23c.35.03.7.09,1.05.1h1.05c2.81.09,5.53-.53,8.12-1.26,2.56-.87,4.88-2.06,7.11-3.55,1.13-.82,2.26-1.64,3.37-2.51,1.09-1.01,2.18-2.02,3.27-3.03,89.8-93.49,169.87-176.86,233.3-242.89,62.59-65.26,108.68-113.46,131.45-137.49,84.06-88.12,123.79-125.26,129.62-139.26,2.29.83,2.77-.34,1.1-3.84ZM1826.04,775.8c-136.25,143.15-227.44,237.31-294.53,305.83-33.54,34.26-61.07,62.12-85.18,86.48-22.37,22.61-41.56,42-60.12,60.77-.16.11-.28.24-.44.31-.17.06-.35.05-.51-.03-.35-.14-.47-.53-.43-.86v-.26s-.02-.07-.02-.07v-.03s0-.2,0-.2c0-1.01,0-2.03-.01-3.04-.02-4.06-.04-8.16-.06-12.3-.08-8.29-.15-16.75-.23-25.49.04-19.55.17-83.89.35-173.33,0-2.8,0-5.61.01-8.46,0-1.42,0-2.85,0-4.28,0-1.05,0-2.1,0-3.15-.01-1.41.04-2.83-.03-4.23-.08-1.39-.08-2.82-.32-4.17-.08-.69-.24-1.34-.37-2.02-.14-.67-.24-1.35-.45-2-.64-2.66-1.71-5.19-2.97-7.62-2.6-4.82-6.32-9.08-10.92-12.2-2.28-1.59-4.77-2.9-7.4-3.88-1.3-.53-2.67-.87-4.03-1.26-1.39-.27-2.76-.6-4.2-.76-1.43-.16-2.92-.19-4.39-.26-1.49,0-2.98,0-4.47,0-1.66,0-3.33,0-5.01,0-6.13,0-12.35-.02-18.65-.03-25.19-.03-51.64-.07-79.04-.1-54.81-.06-113.42-.13-173.39-.2-239.86-.18-501.29-.37-626.65-.47l-68.82.27-33.5.14c-.11.03-.27.05-.36-.05-.07-.02-.1-.09-.13-.16-.01-.03-.02-.07-.02-.1v-.05s-.01-.03-.01-.03h0s0-.52,0-.52l-.55-137.63-1.09-275.26c.03-7.49.07-15.25.1-23.25,0-2,.02-4.01.03-6.04,0-.77,0-1.55.01-2.33v-.3c0-.4.12-.82.42-1.1.27-.31.69-.47,1.1-.45h.31s.15.02.15.02h1.06c2.2.01,4.41.02,6.64.03,8.9.03,18.01.06,27.3.1,37.19.1,77.41.22,119.52.33,84.23.19,176.04.29,266.32.22,180.55-.14,354.98-.95,450.36-3.13,23.17-.14,52.55-.2,86.23-.22,8.42,0,17.11,0,26.04,0,4.46,0,8.99,0,13.57,0,2.29,0,4.59,0,6.91,0h2.88c1.03-.01,2.07.03,3.1-.03,1.02-.06,2.07-.05,3.07-.17,1.01-.1,1.99-.29,2.98-.47,1-.14,1.95-.47,2.92-.71.96-.28,1.9-.65,2.84-.99,1.83-.81,3.65-1.7,5.31-2.84,1.7-1.09,3.24-2.4,4.71-3.8,1.41-1.45,2.74-3,3.85-4.7,1.17-1.67,2.08-3.51,2.91-5.38.36-.96.73-1.92,1.02-2.91.25-1,.58-1.98.73-3.01.19-1.02.38-2.04.48-3.08.09-1.05.11-2.13.17-3.2,0-2,.01-4.01.02-6.02.02-9.76.03-19.71.05-29.8.11-40.37.22-83.12.33-126.35.07-21.61.15-43.34.22-64.95,0-2.26.02-4.53.03-6.79l.03-1.51c.02-.5-.02-1,.12-1.48.13-.48.39-.91.75-1.25.72-.68,1.81-.92,2.73-.61.96.3,1.52,1.19,2.18,1.84,115.15,120.13,214.51,223.79,214.51,223.79,0,0,215.31,228.46,266.58,267.07-6.54,6.54-23.39,23.9-42.68,44.16Z"/>
  <path fill="#0028ba" d="M1702.83,614.05l-31.73-35.69c-18.23-20.03-57.11-61.44-98.19-104.53-20.54-21.55-41.63-43.51-60.95-63.44-9.66-9.96-18.89-19.42-27.38-28.06-6.75-6.89-13.2-13.46-19.28-19.66-3.69-3.76-7.28-7.41-10.75-10.93-3.43-3.39-6.85-7.33-9.85-9.12l-.98-.62-.49-.31c-.16-.08-.31-.14-.46-.21l-1.82-.8c-.3-.13-.61-.28-.9-.39l-.82-.22-1.63-.45c-.26-.07-.56-.17-.8-.2l-.71-.09-1.43-.19c-1.01-.19-1.74-.12-2.57-.14-1.75-.09-2.91.17-4.31.27-.36.02-.62.09-.93.14-.3.06-.84.19-1.48.42-.64.22-1.34.53-1.89.82-.58.31-.91.53-1.13.71-.47.34-1.02.88-1.52,1.32l-.77.69-.38.35c-.13.13-.27.3-.41.45l-1.65,1.85c-.55.73-1.12,1.58-1.67,2.37-.28.36-.55.9-.81,1.41l-.8,1.52c-.28.45-.49,1.16-.72,1.78l-.69,1.89-.49,2.3c-.08.39-.18.75-.23,1.17l-.09,1.37c-.18,1.76-.1,3.83-.1,5.8.05,14.65.1,29.3.15,43.95,0,8.33,0,16.67-.01,25-.07,19.6-.16,42.73-.25,68.48-.04,11.19-.09,22.94-.14,35.17-.02.64-.57,1.21-1.22,1.26-5.07-.02-10.22-.04-15.45-.06-60.26-.19-127.47-.41-194.5-.62-134.06-.41-267.39-.82-342.86-1.05-38.59-.12-77.17-.02-115.73.32-43.91.35-111.34.88-189.38,1.5-39.02.27-80.69.57-123.41.87-5.34.04-10.69.07-16.06.11-2.86.02-5.73.04-8.6.05h-3.75c-1.24.04-2.48.13-3.72.18-2.43.25-4.75.79-7.06,1.47-4.54,1.51-8.75,3.98-12.22,7.26-1.75,1.62-3.29,3.47-4.62,5.45-1.37,1.96-2.44,4.12-3.34,6.33-.87,2.23-1.46,4.57-1.85,6.95-.21,1.19-.32,2.4-.35,3.65l-.08,1.86v1.88s.06,9.65.06,9.65c.13,21.68.27,43.41.4,65,.43,86.36.84,170.43,1.18,239.31,0,2.9.02,5.79.03,8.65.03,3.77.63,7.29,1.78,10.65,2.32,6.7,6.97,12.39,12.81,15.97,2.91,1.81,6.1,3.11,9.41,3.83,3.28.74,6.77.84,10.24.79,4.25,0,8.42-.02,12.52-.03,15.12-.02,29.08-.03,41.69-.05,25.22,0,45.04.07,57.82.21,18.63.21,37.26.2,55.87-.11,78.33-1.31,255.81-4.17,430.92-4.81,129.24-.47,223.74,2.71,364.33,2.16,12.93-.05,25.82-.1,38.63-.15,2.16-.01,4.32-.03,6.48-.04,1.19-.06,2.39.26,3.39.91.97.67,1.79,1.62,2.18,2.75.45,1.12.33,2.34.37,3.52.1,24.98.21,49.51.31,73.32.11,26.22.21,51.63.31,75.92.01,4.43.03,8.83.04,13.2.07,4.28-.21,9.05.6,12.26.15.88.39,1.56.58,2.34.1.37.2.77.31,1.13l.35.98.7,1.95.72,1.68c.49,1.19.95,2.08,1.42,3.05.48,1.01.9,1.79,1.33,2.63l.64,1.24c.24.4.31.75.73,1.17.43.42,1.21.86,1.97,1.07.77.22,1.44.2,1.79.04.86-.3,1.73-.6,2.58-.9l1.32-.47,1.46-.56,1.46-.56,1.61-.71c.55-.25,1.04-.43,1.64-.75l1.75-.91c2.38-1.36,4.98-2.86,7.74-5.7,62.54-65.21,116.98-121.98,160.08-166.92,40.55-42.38,70.37-73.67,86.43-90.69,69.7-73.26,103.88-105.43,108.87-118.38,2.05.53,2.48-.74.98-4.14.02-1.43-.49-2.32-1.4-2.79-7.66-13.94-44.2-50.34-101.15-118.28ZM1447.57,405.3c.04-1.45.09-2.88.13-4.29.02-.66.04-1.32.07-1.97.02-.32,0-.64.06-.94.08-.14.3-.19.44-.08.13.12.24.26.36.39.91,1.01,1.81,1.99,2.68,2.96.41.46.82.91,1.22,1.35l.58.65.14.16.66.69c.66.69,1.31,1.37,1.96,2.05,5.21,5.44,10.28,10.74,15.19,15.88,5.46,5.71,10.72,11.21,15.77,16.49-20.19,49.85-27.96,55.25-34.25,72.12-.76,1.51-2.74,5.65-5.54,11.54.13-31.02.26-62.14.39-92.39.04-8.28.09-16.48.13-24.59ZM1388.85,574.59c4.47.01,8.96.03,13.47.04,2.25,0,4.51.02,6.77.02h5.47c2.02-.05,4.05-.08,5.97-.44.75-.11,1.49-.26,2.22-.43-10.22,21.75-20.36,43.42-25.57,54.69l-25.25,58.54c-12.39,24.86-37.75,77.79-44.04,99.21-8.26,19.82-38.81,80.08-38.81,80.08,0,0-6.34,14.68-9.66,27.56-39.21-.06-82.51-.12-128.12-.19,3.76-6.45,8.19-15.19,9.67-20.27.95-3.26,2.13-6.41,3.63-9.43,7.06-14.17,24.01-48.85,30.72-62.52,1.72-3.5,3.28-7.06,4.68-10.7,6.38-16.58,27.05-68.38,32.17-77.39.93-1.64,1.71-3.35,2.29-5.15,2.43-7.59,7.99-24.74,14.97-40.99,5.15-11.99,11.32-19.64,16.89-32.69,11.37-26.61,21.87-51.48,24.34-58.48.22-.58.42-1.13.61-1.68,14.5.02,29.57.04,45.05.08,17.08.05,34.66.09,52.54.14ZM966.63,893.45c-42.74-.04-85.49-.08-127.08-.11,3.71-6.41,8.02-14.94,9.47-19.94.95-3.26,2.13-6.41,3.63-9.43,7.06-14.17,24.01-48.85,30.72-62.52,1.72-3.5,3.28-7.06,4.68-10.7,6.38-16.58,27.05-68.38,32.17-77.39.93-1.64,1.71-3.35,2.29-5.15,2.43-7.59,7.99-24.74,14.97-40.99,5.15-11.99,11.32-19.64,16.89-32.69,10.87-25.44,20.94-49.28,23.96-57.44,49.92-.31,95.58-.76,133.97-1.36-10.51,24.29-16.09,28.39-19.79,39.19-3.06,5.94-32.1,67.29-41.08,86.72l-18.23,43.35c-9.33,18.25-28.23,57.19-32.09,73.35-5.9,14.71-29.01,58.88-29.01,58.88,0,0-3.32,7.87-5.46,16.23ZM955.69,577.22c-10.1,22.99-15.52,27.12-19.15,37.69-3.06,5.94-32.1,67.29-41.08,86.72l-18.23,43.35c-9.33,18.25-28.23,57.19-32.09,73.35-5.9,14.71-29.01,58.88-29.01,58.88,0,0-3.28,7.79-5.43,16.1-44.6-.04-87.45-.08-127.04-.11,3.7-6.4,7.95-14.84,9.4-19.8.95-3.26,2.13-6.41,3.63-9.43,7.06-14.17,24.01-48.85,30.72-62.52,1.72-3.5,3.28-7.06,4.68-10.7,6.38-16.58,27.05-68.38,32.17-77.39.93-1.64,1.71-3.35,2.29-5.15,2.43-7.59,7.99-24.74,14.97-40.99,5.15-11.99,11.32-19.64,16.89-32.69,10.62-24.86,20.49-48.2,23.75-56.87,46-.07,91.08-.22,133.54-.44ZM404.63,576.94c.33-.1.69-.04,1.03-.03,3.37.02,6.79.03,10.26.05,14.33.06,29.42.13,45.15.2,8.72.03,17.65.06,26.74.09-6.14,12.68-10.15,15.76-12.38,22.99-2.41,4.52-24.78,51.44-31.65,66.32l-13.61,33.36c-7.32,13.89-21.97,43.64-24.23,56.33-.4,1.06-.93,2.3-1.55,3.7l-.86-181.48c-.02-.66.44-1.34,1.11-1.52ZM405.59,893.6c-.27.08-.59-.17-.57-.49l-.14-27.54-.21-45.39c3.25-4.46,8.66-14.04,9.9-19.16.62-2.54,1.47-4.99,2.64-7.28,5.5-10.81,18.66-37.28,23.88-47.72,1.33-2.67,2.51-5.41,3.53-8.22,4.64-12.81,19.84-52.77,23.95-59.58.75-1.24,1.34-2.55,1.73-3.95,1.65-5.91,5.45-19.26,10.69-31.74,3.87-9.22,9.1-14.84,13.28-24.88,6.86-16.45,13.27-32.03,16.43-40.33,16.7.06,33.89.11,51.49.17,26.38.07,53.63.13,81.38.17-9.97,22.6-15.35,26.76-18.95,37.26-3.06,5.94-32.1,67.29-41.08,86.72l-18.23,43.35c-9.33,18.25-28.23,57.19-32.09,73.35-5.9,14.71-29.01,58.88-29.01,58.88,0,0-3.24,7.68-5.39,15.93l-93.22.45ZM527.78,893.07c3.68-6.38,7.89-14.74,9.32-19.67.95-3.26,2.13-6.41,3.63-9.43,7.06-14.17,24.01-48.85,30.72-62.52,1.72-3.5,3.28-7.06,4.68-10.7,6.38-16.58,27.05-68.38,32.17-77.39.93-1.64,1.71-3.35,2.29-5.15,2.43-7.59,7.99-24.74,14.97-40.99,5.15-11.99,11.32-19.64,16.89-32.69,10.62-24.84,20.47-48.16,23.74-56.85,40.05.05,80.87.06,121.33.02,4,0,8,0,11.99-.01-9.96,22.56-15.34,26.72-18.94,37.22-3.06,5.94-32.1,67.29-41.08,86.72l-18.23,43.35c-9.33,18.25-28.23,57.19-32.09,73.35-5.9,14.71-29.01,58.88-29.01,58.88,0,0-3.24,7.7-5.39,15.96-49.86-.04-93.36-.08-126.99-.11ZM995.44,893.48c3.73-6.43,8.09-15.04,9.55-20.08.95-3.26,2.13-6.41,3.63-9.43,7.06-14.17,24.01-48.85,30.72-62.52,1.72-3.5,3.28-7.06,4.68-10.7,6.38-16.58,27.05-68.38,32.18-77.39.93-1.64,1.71-3.35,2.29-5.15,2.43-7.59,7.99-24.74,14.97-40.99,5.15-11.99,11.32-19.64,16.89-32.69,11.37-26.61,21.87-51.48,24.34-58.48.09-.24.18-.48.27-.72,12.18-.23,23.43-.49,33.6-.76,25.64-.18,60.29-.24,100.31-.22-10.9,25.53-16.62,29.56-20.39,40.56-3.06,5.94-32.1,67.29-41.08,86.72l-18.23,43.35c-9.33,18.25-28.23,57.19-32.09,73.35-5.9,14.71-29.01,58.88-29.01,58.88,0,0-3.36,7.99-5.51,16.41-24.32-.04-49.18-.07-74.31-.11-17.49-.02-35.12-.03-52.8-.05ZM1424.91,895.46c-1.4-.45-2.87-.66-4.34-.95-1.48-.26-3.05-.29-4.62-.37-1.57-.06-3.18-.02-4.8-.03-1.04,0-2.08,0-3.14,0-3.37,0-6.85-.02-10.44-.02-7.18-.01-14.78-.03-22.78-.05-16-.03-33.6-.06-52.51-.1-5.34,0-10.8-.02-16.35-.02,4.28-6.3,15.32-27.1,18.62-36.99,1.45-4.34,3.13-8.58,5.14-12.68,9.42-19.28,32.13-66.42,41.12-85.02,2.3-4.75,4.44-9.58,6.42-14.48,9.03-22.3,38.01-92.1,44.67-104.44,1.21-2.25,2.27-4.57,3.13-6.97,3.61-10.14,11.84-33.09,21.46-55.04,7.09-16.2,14.69-26.94,22.38-44.57,15.54-35.62,29.94-68.9,33.67-78.64,31.3,32.75,50.91,53.26,50.91,53.26,0,0,15.64,16.02,39,39.6-15.15,38.08-22.07,42.21-26.82,55.66-3.33,6.53-35.14,73.87-44.99,95.19l-20.15,47.5c-10.17,20.05-30.83,62.81-35.35,80.41-6.54,16.1-31.68,64.67-31.68,64.67,0,0-1.1,2.6-2.51,6.45-.64-.32-1.29-.62-1.95-.92-1.34-.51-2.68-1.06-4.11-1.41ZM1487.18,1033.29c-9.53,9.67-18.44,18.71-26.83,27.23-2.1,2.13-4.17,4.22-6.21,6.28l-1.26,1.26-.2.17-.38.32c-.46.37-.9.74-1.33,1.09-.32.24-.63.48-.93.72l-.39.28-.18.12c-.06.04-.18,0-.22-.12.05-1.02.2-1.88.29-2.59.1-.71.2-1.28.28-1.74.08-7.27.15-14.36.22-21.36.25-28.46.27-55.44-.15-86.39.02-4.13.04-10.64.08-19.25,0-2.7.01-5.57.02-8.6.01-1.18,0-2.36-.07-3.55-.03-.6-.06-1.2-.09-1.8-.06-.59-.15-1.18-.23-1.77-.24-1.39-.53-2.8-.9-4.2l3.02-3.5c3.65-4.92,12.88-21.76,15.36-29.89,1.08-3.55,2.4-7.01,4.04-10.32,7.7-15.57,26.22-53.64,33.56-68.66,1.88-3.84,3.59-7.75,5.15-11.73,7.1-18.14,30.04-74.86,35.58-84.77,1.01-1.81,1.86-3.68,2.52-5.65,2.75-8.28,9.04-27.02,16.74-44.82,5.68-13.14,12.24-21.63,18.39-35.94,10.91-25.35,21.1-49.24,25.39-60.09,26.84,26.98,59.94,59.96,90.9,89.97-12.74,33.25-19.32,36.4-23.18,47.96-2.86,5.49-29.8,62.32-38.12,80.32l-16.78,40.22c-8.7,16.88-26.26,52.94-29.62,68.01-5.41,13.65-26.99,54.5-26.99,54.5,0,0-2.65,6.33-4.54,13.5-2.67,2.76-5.32,5.48-7.92,8.17-24.56,25.31-46,47.24-65.03,66.61ZM1742.88,767.67c-48.03,50.62-89.44,93.97-125.52,131.51,4.61-9.36,8.92-18.14,11.55-23.47,1.6-3.24,3.04-6.54,4.32-9.92,5.83-15.39,24.79-63.48,29.59-71.8.88-1.51,1.6-3.1,2.11-4.78,2.18-7.06,7.2-23.02,13.63-38.09,4.75-11.12,10.62-18.14,15.76-30.24,9.23-21.73,17.82-42.2,21.27-51.23,29.99,28.74,50.64,51.44,64.82,61.97-7.63,5.45-21.96,19.62-37.54,36.04Z"/>
</svg>